<?xml version="1.0" encoding="utf-8"?>
<!-- Generator: Adobe Illustrator 19.2.1, SVG Export Plug-In . SVG Version: 6.00 Build 0)  -->
<svg version="1.1" id="Layer_1" xmlns="http://www.w3.org/2000/svg" xmlns:xlink="http://www.w3.org/1999/xlink" x="0px" y="0px"
	 viewBox="0 0 256 256" style="enable-background:new 0 0 256 256;" xml:space="preserve">
<g>
	<g>
		<ellipse style="fill:#0066CC;" cx="128" cy="128" rx="128" ry="128"/>
		<path id="path1_26_" style="fill:#FFFFFF;" d="M59.8,108.5v73.1h136.5v-73.1H59.8z M115.8,79.2c4,0,7.3,3.3,7.3,7.3
			c0,4-3.3,7.3-7.3,7.3c-4,0-7.3-3.3-7.3-7.3C108.5,82.5,111.8,79.2,115.8,79.2z M96.3,79.2c4,0,7.3,3.3,7.3,7.3
			c0,4-3.3,7.3-7.3,7.3c-4,0-7.3-3.3-7.3-7.3C89,82.5,92.3,79.2,96.3,79.2z M76.8,79.2c4,0,7.3,3.3,7.3,7.3c0,4-3.3,7.3-7.3,7.3
			s-7.3-3.3-7.3-7.3C69.5,82.5,72.8,79.2,76.8,79.2z M59.8,74.4v24.4h136.5V74.4H59.8z M50,64.6h156v126.8H50V64.6z"/>
	</g>
</g>
</svg>
