<?xml version="1.0" encoding="utf-8"?>
<!-- Generator: Adobe Illustrator 19.2.1, SVG Export Plug-In . SVG Version: 6.00 Build 0)  -->
<svg version="1.1" id="Layer_1" xmlns="http://www.w3.org/2000/svg" xmlns:xlink="http://www.w3.org/1999/xlink" x="0px" y="0px"
	 viewBox="0 0 256 256" style="enable-background:new 0 0 256 256;" xml:space="preserve">
<g>
	<g>
		<ellipse style="fill:#333366;" cx="128" cy="128" rx="128" ry="128"/>
		<path id="path1_29_" style="fill:#FFFFFF;" d="M145.2,119h7v44.4h-8.1v-36.8H144l-8.1,4.1l-1.4-6.4L145.2,119z M108.4,118.2
			c9.2,0,13.9,5.1,13.9,10.9c0,4.6-2.7,8.5-8.2,10.4v0.1c5.4,1,9.8,5.1,9.8,11.1c0,7.5-6.3,13.5-17.3,13.5c-5.4,0-10-1.5-12.4-3.1
			l1.9-6.4c1.7,1,5.9,2.7,10.1,2.7c6.4,0,9-3.6,8.9-7.1c0-5.3-4.9-7.5-10-7.5h-3.9v-6.1h3.8c3.9,0,8.8-1.8,8.8-6.2
			c0-3-2.3-5.5-7.1-5.5c-3.6,0-7.2,1.6-9.1,2.8l-1.9-6.1C98.2,119.8,103.1,118.2,108.4,118.2z M98.8,80.5h58.5v9.8H98.8V80.5z
			 M81.7,68.3h14.6v34.1H81.7V90.2H59.8V178h136.5V90.2h-21.9v12.2h-14.6V68.3h14.6v12.2h21.9c5.4,0,9.8,4.4,9.8,9.8V178
			c0,5.4-4.4,9.8-9.8,9.8H59.8c-5.4,0-9.8-4.4-9.8-9.8V90.2c0-5.4,4.4-9.8,9.8-9.8h21.9V68.3z"/>
	</g>
</g>
</svg>
