<?xml version="1.0" encoding="utf-8"?>
<!-- Generator: Adobe Illustrator 19.2.1, SVG Export Plug-In . SVG Version: 6.00 Build 0)  -->
<svg version="1.1" id="Layer_1" xmlns="http://www.w3.org/2000/svg" xmlns:xlink="http://www.w3.org/1999/xlink" x="0px" y="0px"
	 viewBox="0 0 256 256" style="enable-background:new 0 0 256 256;" xml:space="preserve">
<g>
	<g>
		<ellipse style="fill:#99CC00;" cx="128" cy="128" rx="128" ry="128"/>
	</g>
	<g>
		<path style="fill:#FFFFFF;" d="M59.4,133.2c4.3-4.5,8.5-9.2,13-13.5c2.7-2.6,6.5-2.2,9.3,0.6c7.8,7.9,15.7,15.7,23.5,23.6
			c0.8,0.8,1.3,1.7,2.1,2.8c1.3-1.2,2.1-1.9,2.9-2.7c19.9-20,39.9-39.9,59.7-60c3.7-3.7,8-4.6,12.1,0.1c2.8,3.2,6.1,6.1,9.1,9.2
			s3.1,6.9,0,10c-26.1,26.1-52.2,52.2-78.3,78.2c-3.2,3.2-7,3.3-10.2,0c-13.7-13.6-27.4-27.3-41-41c-0.9-0.9-1.5-2-2.3-2.9
			C59.4,136.1,59.4,134.6,59.4,133.2z"/>
		<g>
			<path style="fill:#FFFFFF;" d="M61.6,128.3C61.6,128.2,61.6,128.5,61.6,128.3c1.4-1.5,2.9-3,4.3-4.6c0-0.1,0,4.3,0,4.2
				c0-34.6,28.1-62.7,62.7-62.7c17.1,0,30.4,4.6,41.7,15.7c1.5-1.4,3.1-2.4,4.7-2.7C162.7,65.7,147.7,60,128.7,60
				c-37.5,0-68,30.4-68,68c0,2,0-1.2,0.2,0.8L61.6,128.3z"/>
			<path style="fill:#FFFFFF;" d="M192.2,104c-1.4,1.4-2.7,2.7-4.1,4.1c2.1,6.3,3.3,13,3.3,19.9c0,34.6-28.1,62.7-62.7,62.7
				c-28.7,0-52-16-60.3-41l-6.9-6.9c6.9,32.4,33.2,53.1,67.2,53.1c37.5,0,68-30.4,68-68C196.6,119.5,195.1,111.4,192.2,104z"/>
		</g>
	</g>
</g>
</svg>
