<?xml version="1.0" encoding="utf-8"?>
<!-- Generator: Adobe Illustrator 19.2.1, SVG Export Plug-In . SVG Version: 6.00 Build 0)  -->
<svg version="1.1" id="Layer_1" xmlns="http://www.w3.org/2000/svg" xmlns:xlink="http://www.w3.org/1999/xlink" x="0px" y="0px"
	 viewBox="0 0 256 256" style="enable-background:new 0 0 256 256;" xml:space="preserve">
<g>
	<g>
		<ellipse style="fill:#FF3333;" cx="128" cy="128" rx="128" ry="128"/>
		<path id="path1_4_" style="fill:#FFFFFF;" d="M176.8,152.5c-4,0-7.3,3.3-7.3,7.5c0,4.1,3.3,7.5,7.3,7.5s7.3-3.3,7.3-7.5
			S180.8,152.5,176.8,152.5z M79.3,152.5c-4,0-7.3,3.3-7.3,7.5c0,4.1,3.3,7.5,7.3,7.5s7.3-3.3,7.3-7.5
			C86.6,155.8,83.3,152.5,79.3,152.5z M128,152.4c-4,0-7.3,3.3-7.3,7.5c0,4.1,3.3,7.5,7.3,7.5s7.3-3.3,7.3-7.5S132,152.4,128,152.4z
			 M128,142.6c9.4,0,17.1,7.7,17.1,17.2c0,5.3-2.4,10.1-6.2,13.3l-0.4,0.3l0.9,0.4c5.2,2.2,9.7,6,12.9,10.7l0.2,0.3l0.1-0.1
			c3.2-4.7,7.6-8.5,12.9-10.7l0.9-0.4l-0.4-0.3c-3.8-3.2-6.2-7.9-6.2-13.3c0-9.5,7.7-17.2,17.1-17.2S194,150.5,194,160
			c0,5.3-2.4,10.1-6.2,13.3l-0.4,0.3l0.9,0.4c10.5,4.5,17.9,15,17.9,27.2h-9.8c0-10.9-8.7-19.8-19.5-19.8s-19.5,8.9-19.5,19.8h-9.8
			v-0.1l0,0c0-10.9-8.7-19.8-19.5-19.8s-19.5,8.9-19.5,19.8l0,0v0.1h-9.8c0-10.9-8.7-19.8-19.5-19.8s-19.5,8.9-19.5,19.8H50
			c0-12.2,7.4-22.7,17.9-27.2l0.9-0.4l-0.4-0.3c-3.8-3.2-6.2-7.9-6.2-13.3c0-9.5,7.7-17.2,17.1-17.2s17.1,7.7,17.1,17.2
			c0,5.3-2.4,10.1-6.2,13.3l-0.4,0.3l0.9,0.4c5.2,2.2,9.7,6,12.9,10.7l0.1,0.1l0.2-0.3c3.2-4.7,7.6-8.5,12.9-10.7l0.9-0.4l-0.4-0.3
			c-3.8-3.2-6.2-7.9-6.2-13.3C110.9,150.3,118.6,142.6,128,142.6z M89,113.4h34.1v4.9H89V113.4z M89,103.6h34.1v4.9H89V103.6z
			 M89,93.9h34.1v4.9H89V93.9z M152.4,84.1c-5.4,0-9.8,4.4-9.8,9.8s4.4,9.8,9.8,9.8s9.8-4.4,9.8-9.8S157.8,84.1,152.4,84.1z
			 M152.4,79.2c8.1,0,14.6,6.6,14.6,14.6s-6.6,14.6-14.6,14.6c-8.1,0-14.6-6.6-14.6-14.6S144.3,79.2,152.4,79.2z M118.6,70.1
			l3.4,3.4l-14.4,14.4l-9.5-9.5l-7.8,7.8l-3.4-3.4l11.2-11.2l9.5,9.5L118.6,70.1z M79.3,64.6v58.5h97.5V64.6H79.3z M69.5,54.9h117
			v78h-117V54.9z"/>
	</g>
</g>
</svg>
