<?xml version="1.0" encoding="utf-8"?>
<!-- Generator: Adobe Illustrator 19.2.1, SVG Export Plug-In . SVG Version: 6.00 Build 0)  -->
<svg version="1.1" id="Layer_1" xmlns="http://www.w3.org/2000/svg" xmlns:xlink="http://www.w3.org/1999/xlink" x="0px" y="0px"
	 viewBox="0 0 256 256" style="enable-background:new 0 0 256 256;" xml:space="preserve">
<g>
	<g>
		<ellipse style="fill:#0066CC;" cx="128" cy="128" rx="128" ry="128"/>
		<path id="path1_24_" style="fill:#FFFFFF;" d="M90.3,129.9l-27.2,49.3h106.8l-32.4-32.6l-24.2,16.1L90.3,129.9z M153,106.1
			c5.4,0,9.8,4.4,9.8,9.8c0,5.4-4.4,9.8-9.8,9.8c-5.4,0-9.8-4.4-9.8-9.8C143.2,110.4,147.6,106.1,153,106.1z M59.8,96.3v68.8
			l29.6-53.6l26.5,37.8l22.9-15.3l38,38.2V96.3H59.8z M50,86.6h136.5v102.4H50V86.6z M79.3,67.1H206v92.6h-9.8V76.8h-117V67.1z"/>
	</g>
</g>
</svg>
