<?xml version="1.0" encoding="utf-8"?>
<!-- Generator: Adobe Illustrator 19.2.1, SVG Export Plug-In . SVG Version: 6.00 Build 0)  -->
<svg version="1.1" id="Layer_1" xmlns="http://www.w3.org/2000/svg" xmlns:xlink="http://www.w3.org/1999/xlink" x="0px" y="0px"
	 viewBox="0 0 256 256" style="enable-background:new 0 0 256 256;" xml:space="preserve">
<g>
	<g>
		<ellipse style="fill:#0099CC;" cx="128" cy="128" rx="128" ry="128"/>
	</g>
	<path style="fill:#FFFFFF;" d="M72.9,114.7c0-12.3,0-24.7,0-37c0-4.7,0-9.3,0-14c0-1.8-0.1-3.6,1.7-4.7c2.1-1.2,4-0.6,5.8,0.5
		C89.2,65,95,72.6,96.7,82.8c0.9,5.8,1,11.7,1.1,17.6c0.1,18.7,0,37.4,0.1,56.1c0,2.8,0.3,5.7,0.8,8.4c0.5,3.1,2.6,5,5.7,5.5
		c2.4,0.4,4.9,0.7,7.3,0.7c11.9,0,23.9-0.1,35.8-0.1c1.4,0,2.7-0.2,4.1-0.5c2.8-0.5,4.5-2.3,5-5c0.3-1.6,0.5-3.2,0.5-4.8
		c0-10.2,0.1-20.4-0.1-30.6c-0.1-6.1-2.1-8-8.2-8.4c-7.3-0.5-14.5-0.6-21.6-2.7c-6.3-1.9-12.3-4.6-16.7-9.6c-2.3-2.6-4-5.9-5.4-9.2
		c-1.2-2.7,0-4.2,3-4.4c2.6-0.2,5.2-0.2,7.8-0.1c11.8,0.1,23.6,0.3,35.4,0.3c16.4,0,29.1,14,31,28.1c0.6,4.2,0.6,8.4,0.7,12.6
		c0,9.4,0,18.8-0.2,28.2c-0.3,15.1-12.1,28.5-27.2,30.7c-18.7,2.8-37.5,2.8-56.3-0.2c-13.9-2.2-25-14.3-25.8-28.4
		c-0.6-10.2-0.4-20.5-0.4-30.8c-0.1-7.2,0-14.4,0-21.6C73,114.7,73,114.7,72.9,114.7z"/>
</g>
</svg>
