<?xml version="1.0" encoding="utf-8"?>
<!-- Generator: Adobe Illustrator 19.2.1, SVG Export Plug-In . SVG Version: 6.00 Build 0)  -->
<svg version="1.1" id="Layer_1" xmlns="http://www.w3.org/2000/svg" xmlns:xlink="http://www.w3.org/1999/xlink" x="0px" y="0px"
	 viewBox="0 0 256 256" style="enable-background:new 0 0 256 256;" xml:space="preserve">
<g>
	<g>
		<ellipse style="fill:#0066CC;" cx="128" cy="128" rx="128" ry="128"/>
		<path id="path1_25_" style="fill:#FFFFFF;" d="M59.8,171.9v9.8c0,2.7,2.2,4.9,4.9,4.9h126.8c2.7,0,4.9-2.2,4.9-4.9v-9.8h-92.6v4.9
			H84.1v-4.9H59.8z M113.5,100.9v34.7l9.2-5.7c6.2-3.9,12.4-7.8,18.7-11.6l-6.8-4.2C127.5,109.7,120.5,105.3,113.5,100.9z M110.9,89
			c1.3,0,2.6,0.4,3.8,1.1c8.4,5.2,16.7,10.4,25.1,15.6l10,6.2c3.2,1.9,4.4,6.2,2.5,9.7c-0.6,1.1-1.3,1.7-1.9,2.3l-0.7,0.5
			c-7.3,4.5-14.6,9.1-21.9,13.6l-13.3,8.2c-1.1,0.7-2.4,1.1-3.7,1.1c-0.6,0-1.2-0.1-1.8-0.2c-1.9-0.5-3.6-1.8-4.5-3.6
			c-0.6-1.1-0.8-2.2-0.8-3.5V96.3C103.7,92.3,106.9,89,110.9,89z M64.6,69.5c-2.7,0-4.9,2.2-4.9,4.9v87.8h24.4v-4.9h19.5v4.9h92.6
			V74.4c0-2.7-2.2-4.9-4.9-4.9H64.6z M64.6,59.8h126.8c8.1,0,14.6,6.6,14.6,14.6v107.3c0,8.1-6.6,14.6-14.6,14.6H64.6
			c-8.1,0-14.6-6.6-14.6-14.6V74.4C50,66.3,56.6,59.8,64.6,59.8z"/>
	</g>
</g>
</svg>
