<?xml version="1.0" encoding="utf-8"?>
<!-- Generator: Adobe Illustrator 19.2.1, SVG Export Plug-In . SVG Version: 6.00 Build 0)  -->
<svg version="1.1" id="Layer_1" xmlns="http://www.w3.org/2000/svg" xmlns:xlink="http://www.w3.org/1999/xlink" x="0px" y="0px"
	 viewBox="0 0 256 256" style="enable-background:new 0 0 256 256;" xml:space="preserve">
<g>
	<g>
		<ellipse style="fill:#0066CC;" cx="128" cy="128" rx="128" ry="128"/>
		<path id="path1_13_" style="fill:#FFFFFF;" d="M98.7,147.5h34.1c2.7,0,4.9,2.2,4.9,4.9c0,2.7-2.2,4.9-4.9,4.9H98.7
			c-2.7,0-4.9-2.2-4.9-4.9C93.9,149.7,96.1,147.5,98.7,147.5z M98.7,128h43.9c2.7,0,4.9,2.2,4.9,4.9s-2.2,4.9-4.9,4.9H98.7
			c-2.7,0-4.9-2.2-4.9-4.9S96.1,128,98.7,128z M98.7,108.5h58.5c2.7,0,4.9,2.2,4.9,4.9s-2.2,4.9-4.9,4.9H98.7
			c-2.7,0-4.9-2.2-4.9-4.9S96.1,108.5,98.7,108.5z M152.4,66.6v17.6H170L152.4,66.6z M79.2,59.8v136.5h97.5V94h-34.1V59.8H79.2z
			 M79.2,50h70.3l37,37v109.3c0,5.4-4.4,9.8-9.8,9.8H79.2c-5.4,0-9.8-4.4-9.8-9.8V59.8C69.5,54.4,73.9,50,79.2,50z"/>
	</g>
</g>
</svg>
