<?xml version="1.0" encoding="utf-8"?>
<!-- Generator: Adobe Illustrator 19.2.1, SVG Export Plug-In . SVG Version: 6.00 Build 0)  -->
<svg version="1.1" id="Layer_1" xmlns="http://www.w3.org/2000/svg" xmlns:xlink="http://www.w3.org/1999/xlink" x="0px" y="0px"
	 viewBox="0 0 256 256" style="enable-background:new 0 0 256 256;" xml:space="preserve">
<g>
	<g>
		<ellipse style="fill:#99CC00;" cx="128" cy="128" rx="128" ry="128"/>
		<path id="path1_30_" style="fill:#FFFFFF;" d="M71.9,106.4v50.7l48.7,34.6v-50.5L71.9,106.4z M184.1,105.7l-53.6,35.6v50.8
			l53.6-35.4V105.7z M126.3,60.8L75.5,97l50.2,35.8l54.5-36.2L126.3,60.8z M126.1,50c1,0,1.9,0.3,2.8,0.8l62.8,41.7
			c1.4,0.9,2.2,2.4,2.2,4.1c0,0.2,0,0.4,0,0.6l-0.1,0.5v0.1c0.1,0.3,0.1,0.6,0.1,1v58.5c0,0.3,0,0.7-0.1,1l0,0v0.1
			c0.3,1.9-0.4,3.8-2.1,5l-63.3,41.8h-0.1c-0.5,0.4-1.1,0.6-1.7,0.7h-0.3l0,0l0,0h-0.2H126l0,0l0,0h-0.3c-0.2,0-0.3,0-0.5,0H125l0,0
			l0,0h-0.2c-0.6-0.1-1.2-0.4-1.7-0.7l-0.1-0.1l-58.4-41.5c-1.6-1.2-2.3-3.2-1.9-5v-0.1v-0.2c-0.1-0.3-0.1-0.6-0.1-1V98.8
			c0-0.2,0-0.3,0-0.5l0.1-0.4l-0.1-0.3c0-0.2,0-0.4,0-0.6c0-1.6,0.8-3.1,2-4l59.1-42.1C124.2,50.3,125.1,50,126.1,50z"/>
	</g>
</g>
</svg>
