<?xml version="1.0" encoding="utf-8"?>
<!-- Generator: Adobe Illustrator 19.2.1, SVG Export Plug-In . SVG Version: 6.00 Build 0)  -->
<svg version="1.1" id="Layer_1" xmlns="http://www.w3.org/2000/svg" xmlns:xlink="http://www.w3.org/1999/xlink" x="0px" y="0px"
	 viewBox="0 0 256 256" style="enable-background:new 0 0 256 256;" xml:space="preserve">
<g>
	<g>
		<ellipse style="fill:#99CC00;" cx="128" cy="128" rx="128" ry="128"/>
	</g>
	<g>
		<path style="fill:#FFFFFF;" d="M156.2,77c-0.4-6.6-5.2-9.8-11.6-7.7c-3.5,0.6-3.7,3.7-4.8,6.2c-0.9,2.1,0.8,2.1,1.7,3
			c0.8,0.8,0.5,2,0.5,3.1c-0.1,5.9,0,11.8,0.5,17.7c0.3,2.7,1.3,4.7,3.9,5.7c6,2.8,10.2,0.2,10.4-6.4
			C156.9,91.4,156.6,84.2,156.2,77z"/>
		<path style="fill:#FFFFFF;" d="M187.5,172.4c-1.4-2-1.8-4.3-1.9-6.7c-0.4-6.6-0.8-13.3-1.4-19.9c-0.4-4.3-1.3-8.6-3.3-13.2
			c-0.9,3-1.7,5.3-2.4,7.6c-0.5,0.8-0.9,1.7-1.4,2.5c-5,8.8-11.1,16.5-21.9,18.4c-5.9,1-11.8,0.5-17.5-1.2c-1.3-0.4-2.5-1.2-4.1-0.7
			c1.2,2.4,2.3,4.7,3.4,7l0,0c-1,1.7-2.1,1.6-3,0c-1-1.7-1.9-3.5-2.8-5.2c-0.7-2.8-2.6-4.1-5.2-5.1c-5.9-2.3-11.7-4.7-17.4-7.3
			c-7.2-3.2-13.9-7.2-18.7-13.6c-1.8-2.4-3-2.2-4.3,0.2c-1.6,0.8-2.9,2.6-5.1,1.2c-0.2-1.3,0.7-1.9,1.7-2.4c2-1,3.1-2.7,3.3-4.8
			c0.9-8.7-1.1-16.5-7.1-23.1c-1.3-2.2-3.2-3.2-5.7-2.5s-1.7,3.1-1.8,4.6c-0.1,8-0.4,16-3,23.7c-0.9,3.6,1.1,6.3,3,8.8
			c5,6.5,9.4,13.3,14.1,20c2.2,3.1,4.8,5.7,7.9,7.9c14.8,10.6,29.6,21.1,41.9,34.6c3.1,3.4,6.2,3.9,10.2,2.4l0,0
			c10.6-1.9,20.3-5.8,29-12.2c5-2.7,9-6.5,12.8-10.6C191.9,176.9,191.5,178.9,187.5,172.4z"/>
		<path style="fill:#FFFFFF;" d="M109,65.3c-1.2-0.8-2.4-1.8-3.5-2.8c-5.7-5.4-9.3-5.1-13.9,1.1c-1.9,1.7-3.3,3.8-4.1,6.1
			c-1,2.7-0.9,5.9,1,7.9c1.1,1.1,3.2-1.4,4.9-2.1c0.1,0,0.1-0.2,0.2-0.4c-1.1-1-2.3-2.1-3.4-3.2c-0.6-0.6-1.1-1.5-0.3-2.3
			c0.8-0.8,1.6-0.3,2.2,0.4c1.6,1.8,3.5,2.9,5.9,2.6c-0.3-0.1-0.6-0.3-0.9-0.4c0.3,0.1,0.6,0.2,0.9,0.4c3.6,1,7.2,1,10.6-0.9
			C111.7,70,111.8,67.2,109,65.3z"/>
		<path style="fill:#FFFFFF;" d="M174.5,89.5c-1.4-3.4-3.6-4.6-7.4-4c-2.2,0.6-3.6,2.2-5,3.8c-0.4,0.6-1.3,1.4-0.6,1.9
			c2.7,2.1,0.8,4.5,0.7,6.8c-0.2,4.2-1.7,8.4,0.3,12.6c2.8,2.2,5.6,2.3,7.7,0.1C174.2,106.9,176.6,94.6,174.5,89.5z"/>
		<path style="fill:#FFFFFF;" d="M136,84.6c-1.2-6.6-2.6-13.2-4.8-19.6s-7.6-7.7-13-3.3c-3.2,2.1-4.1,5.4-4.6,8.9
			c-0.6,0.9-1.3,1.9-2,2.9c3.7,1.3,2.4-1.5,2.7-2.9c1.9-0.8,2.4,0.7,3,1.9c1.9,4.2,3.1,8.6,4.2,13.1c1.6,6.3,5.8,8.2,11.7,5.1l0,0
			C135.8,89.5,136.4,87.2,136,84.6z"/>
		<path style="fill:#FFFFFF;" d="M178.1,118.8L178.1,118.8c-0.1-1.1,0-2.3-0.6-3.4c-0.3-2.1-0.8-4.1-2.5-5.9
			c-1.2,2.5-2.4,4.6-4.1,6.5l0,0c-3.7,2.2-7.4,1.5-10.9-0.4c-0.4-0.7-0.8-1.4-1.2-2.1c-0.2-0.2-0.4-0.4-0.6-0.6l0,0
			c0-1.7,0.2-3.5-0.4-5.3c-5.1,4-10,5.4-16.5,0.3l0,0l0,0c-0.6-1-1.2-1.9-1.7-2.9c-0.2-1.3-0.5-2.6-0.7-3.9c0-2.1-0.2-1.2-0.2-3
			c-0.3-1.9-0.6-3.9-0.9-5.9c-5.4,6.2-13.3,6.3-17.7,2.7c-0.7-1.7-1.3-3.5-2-5.2l0,0c-0.1-1.8-0.5-3.5-1.3-5.1c-1-5.8-1.4-6-7.1-6.5
			c-2.7-0.2-5.3,0.5-8,0.5c-5.4-0.1-10.1,1.7-14,5.3c-2.4,1.8-4.7,3.7-5.9,6.5c-1,1.1-1.7,2.4-1.8,3.9c-1,2.3-2.2,4.6,0.7,6.4l0,0
			c1.1,1.5,2.2,3,3.3,4.5c0.6,1.1,1.2,2.2,1.8,3.3l0,0c0.4,1.1,0.9,2.2,1.3,3.2l0,0c0.2,0.9,0.5,1.7,0.7,2.6l0,0l0,0
			c0.2,0.9,0.4,1.7,0.6,2.6l0,0c0,0.2,0,0.4,0,0.6l0,0l0,0c0.2,2,0.4,4,0.6,6c0.1,1.6-0.2,3.2,1.3,4.4l0,0c1.7,2.7,3.9,5.1,6.5,7.1
			l0,0c1.7,2.2,4,3.5,6.4,4.5l0,0c2.8,1.9,5.8,3.4,9,4.5l0,0c2.1,1.6,4.6,2.4,7.1,3.2l0,0c2.6,1.5,5.4,2.7,8.4,3.3
			c3.4,2,7.2,3,11,3.8c6.9,2.4,13.8,3,20.6,0l0,0c2.5-0.7,4.7-1.9,6.4-3.9l0,0l0,0c1.6-1.2,3.2-2.5,3.9-4.5c2-1.8,3.7-3.8,4.5-6.5
			c1.3-2.3,2.8-4.4,3.2-7.1C178.7,127.8,179.4,123.4,178.1,118.8z M95.5,103.3c-0.8-0.9-1.2-2-1.3-3.3c1.6-2.4,3.8-2.9,6.4-2.1
			c1.7,0.5,3.5,1,5.2,1.5c1.5,1.3,3,2.6,4.5,3.8c0.7,1.6,1,3.2-0.6,4.5c-2.9,1.2-5.7,0.5-8.4-0.6C98.7,106.8,97.4,104.6,95.5,103.3z
			 M117.1,127.8c-1.3,3.4-5,4.7-9.4,3.2c-0.8-0.3-1.8-0.6-2.4-1.4c-1-1.4-1.8-2.9-2.6-4.4c-0.5-1.8,0.5-2.9,1.8-3.8
			c2.6-2.4,5.5-2.2,8.4-0.7c1.1,1.3,2.2,2.6,3.2,3.9C117.2,125.5,117.4,126.6,117.1,127.8z M120.6,102.7c2.5-2.6,4.1-2.6,7.1,0
			c0.2,0.9,0.4,1.7,0.6,2.6C124.4,108.1,122.4,107.4,120.6,102.7z M136.8,131.7c-1.7,0.9-3.1,0.1-4.5-0.6c-1.8-1-2-2.7-1.9-4.5
			c0.4-0.6,0.9-1.3,1.3-1.9c1.5,0.2,3,0.4,4.5,0.7c0.7,1.1,1.7,1.9,2,3.2C138.1,129.7,137.9,130.9,136.8,131.7z M158.2,130.3
			c-1-0.2-2.1-0.4-3.1-0.9c-0.6-0.4-1-1.1-1.7-1.4c-2.4-1.4-2.9-3.4-1.9-5.9c0.2-0.4,0.4-0.9,0.7-1.3c3.4-1.3,6.6-0.4,9.7,1.3
			c2.3,0.1,3.9,0.9,4.2,3.4C164.9,129.9,162.7,131.2,158.2,130.3z"/>
	</g>
</g>
</svg>
