<?xml version="1.0" encoding="utf-8"?>
<!-- Generator: Adobe Illustrator 19.2.1, SVG Export Plug-In . SVG Version: 6.00 Build 0)  -->
<svg version="1.1" id="Layer_1" xmlns="http://www.w3.org/2000/svg" xmlns:xlink="http://www.w3.org/1999/xlink" x="0px" y="0px"
	 viewBox="0 0 256 256" style="enable-background:new 0 0 256 256;" xml:space="preserve">
<g>
	<g>
		<ellipse style="fill:#333366;" cx="128" cy="128" rx="128" ry="128"/>
		<path id="path1_18_" style="fill:#FFFFFF;" d="M79.7,125.6c-11,0-19.9,9.4-19.9,20.9c0,2.5,1.9,4.5,4.1,4.5h15.4l0.1-1.1
			c0.8-9.5,5.1-18,11.6-24.1l0.2-0.2H79.7z M116,125.6c-14.9,0-27,12.3-27,27.3c0,3.8,3,6.8,6.7,6.8H135l-0.2-0.6
			c-1.2-3.7-1.9-7.6-1.9-11.7c0-7.6,2.3-14.6,6.3-20.4l0.3-0.4h-0.2c-2.3-0.7-4.8-1-7.3-1h-8.9l0,0L116,125.6z M169.4,125.1
			c2.7,0,4.9,2.2,4.9,4.9v12.6h12.6c2.7,0,4.9,2.2,4.9,4.9s-2.2,4.9-4.9,4.9h-12.6V165c0,2.7-2.2,4.9-4.9,4.9s-4.9-2.2-4.9-4.9
			v-12.6H152c-2.7,0-4.9-2.2-4.9-4.9s2.2-4.9,4.9-4.9h12.6V130C164.6,127.3,166.7,125.1,169.4,125.1z M169.4,120.7
			c-14.8,0-26.8,12-26.8,26.8s12,26.8,26.8,26.8s26.8-12,26.8-26.8C196.3,132.7,184.2,120.7,169.4,120.7z M104,117.5l-0.2,0.3
			l-0.3,0.4l0.8-0.3h0.1L104,117.5z M87.2,90.5c-6.6,0-12,5.7-12,12.7c0,5.7,3.6,10.7,8.8,12.2c2.1,0.6,4.4,0.6,6.5,0
			c3.3-1,6.1-3.4,7.6-6.7l0.2-0.4l-0.2-0.6c-1-2.8-1.5-5.8-1.5-8.9c0-0.9,0-1.8,0.1-2.7l0.1-0.9l-0.1,0.1
			C94.3,92.2,90.9,90.5,87.2,90.5z M123.1,81.7c-9.3,0-16.9,7.7-16.9,17.1c0,7.6,5,14.4,12.3,16.4c3,0.9,6.3,0.9,9.2,0
			c7.2-2.1,12.3-8.8,12.3-16.4C140,89.4,132.4,81.7,123.1,81.7z M123.1,71.9c14.7,0,26.6,12,26.6,26.8c0,6.7-2.5,13-6.7,17.8
			l-0.7,0.8l1,0.3c0.9,0.3,1.8,0.6,2.7,1l0.7,0.3l0.9-0.7c6.1-4.6,13.7-7.3,21.9-7.3c20.2,0,36.6,16.4,36.6,36.6
			s-16.4,36.6-36.6,36.6c-11.3,0-21.5-5.2-28.2-13.3l-0.9-1.2H95.7c-6.2,0-11.7-3.5-14.5-8.7l-0.1-0.1H63.9
			c-7.7,0-13.9-6.4-13.9-14.2c0-13.2,8.1-24.5,19.5-28.8l0.9-0.3l0,0c-3.1-3.9-4.9-8.9-4.9-14.2c0-12.4,9.8-22.4,21.8-22.4
			c4.6,0,9.1,1.5,12.7,4.2l0.3,0.2l0.2-0.3C105,77.1,113.5,71.9,123.1,71.9z"/>
	</g>
</g>
</svg>
