<?xml version="1.0" encoding="utf-8"?>
<!-- Generator: Adobe Illustrator 19.2.1, SVG Export Plug-In . SVG Version: 6.00 Build 0)  -->
<svg version="1.1" id="Layer_1" xmlns="http://www.w3.org/2000/svg" xmlns:xlink="http://www.w3.org/1999/xlink" x="0px" y="0px"
	 viewBox="0 0 256 256" style="enable-background:new 0 0 256 256;" xml:space="preserve">
<g>
	<g>
		<ellipse style="fill:#0066CC;" cx="128" cy="128" rx="128" ry="128"/>
	</g>
	<g>
		<path style="fill:#FFFFFF;" d="M131.8,153c-0.3,3.2-0.5,6.1-0.7,9c-0.3,3.4-2.1,5.8-5,7c-2.4,1-5.1,1.8-7.7,2
			c-3.9,0.4-6.8-2.4-7-6.4c-0.4-10.5-0.8-21-1.1-31.5c-0.3-9.6-0.3-19.3-0.6-28.9c-0.1-3.8,1.7-6.2,5-7.7c4.3-1.9,8.8-1.9,13.4-1.3
			c2.7,0.4,4.7,2.2,4.9,4.9c0.3,3.8,0.4,7.6,0.3,11.4c-0.2,8.7-0.6,17.5-0.8,26.2c0,0.4,0.1,0.9,0.2,1.8c2.7-0.4,5.2-0.7,7.6-1.2
			c7-1.6,13.5-4.5,19.3-8.8c13.5-9.9,17.7-34.7-2.8-46.9c-6.4-3.8-13.5-5.6-20.9-5.8c-11.8-0.3-23.5,0.3-34.1,5.9
			c-6.2,3.3-11.7,8-17.5,12.1c-1.4,1-2.5,2.3-3.8,3.4c-2.2,1.7-5.4,1.9-7.5,0.5c-2-1.3-3.2-4.2-1.9-6.9c1.4-3.1,3.3-6.2,5.6-8.7
			C86.8,72,99.8,65.4,114.4,62.2c16.7-3.7,33.4-2.9,49.1,4.7C177.3,73.6,187,84,189.3,100c3.3,22.9-10.7,39.7-27.1,47.2
			c-8.7,3.9-17.9,5.3-27.3,5.9C133.9,153.1,133,153,131.8,153z"/>
		<path style="fill:#FFFFFF;" d="M121.3,195.9c-5.6,0-9.5-3.5-9.6-8.6c-0.1-5.2,4.3-9.9,9.2-9.9c5.2-0.1,9.9,4.7,9.8,9.9
			C130.7,192.1,126.5,195.9,121.3,195.9z"/>
	</g>
</g>
</svg>
