<?xml version="1.0" encoding="utf-8"?>
<!-- Generator: Adobe Illustrator 19.2.1, SVG Export Plug-In . SVG Version: 6.00 Build 0)  -->
<svg version="1.1" id="Layer_1" xmlns="http://www.w3.org/2000/svg" xmlns:xlink="http://www.w3.org/1999/xlink" x="0px" y="0px"
	 viewBox="0 0 256 256" style="enable-background:new 0 0 256 256;" xml:space="preserve">
<g>
	<g>
		<ellipse style="fill:#990099;" cx="128" cy="128" rx="128" ry="128"/>
		<path id="path1_8_" style="fill:#FFFFFF;" d="M153.1,107.8c-12.8,0-29.2,2.4-33.3,20.9c-4.5,26.5,20.5,33.1,21.5,33.4
			c8.9,2.4,17.8,3.2,26.3,2.8l1.7-0.3l1.1,1.3c1.4,1.7,3.8,4.1,6.1,6.4l0.5-8.7l2.2-0.8c3.2-1.1,12.3-4.9,15.5-8.6
			c3.3-4.3,8.2-23.1-1.4-33.4c-7.5-8-20.4-12.8-29.3-12.8l0,0C161.2,108.1,157.4,107.8,153.1,107.8z M152.7,98.4
			c3.9,0,8.1,0.3,12.4,0.9l-0.5,3.5l0.5-3.5c10.4,1.6,24.6,6.5,33.3,15.8c12.5,13.4,6.8,36.8,1.7,43.4c-3.9,4.7-12.3,8.4-16.4,10
			l-1.1,19l-5.4-5c-0.3-0.3-7.2-6.6-11.1-10.9c-8.7,0.2-17.7-0.9-26.8-3.3c-12-3.2-31-15.7-26.6-41.9
			C116.9,108.5,131.5,98.5,152.7,98.4z M101.8,75.4c-4.4,0-9.2,0.4-14.6,1.5c-12.9,2.6-24,11.2-28.4,21.9
			c-2.1,5.1-3.5,12.8,1.8,20.7c6.4,10.9,16,15.4,21.7,18.1l1.6,0.7l2.6,11.2L89,144l11.2,0.2c-1.3-6.4-3.1-18.3-0.2-28
			c0.8-2.7,8.1-24.9,31-31.6C126.1,80.6,116.9,75.4,101.8,75.4z M102.4,68.4c26.7,0.2,37.8,15.3,38.4,16.1l3.3,4.7l-5.7,0.8
			c-23.8,3.4-31,25.6-31.8,28.1c-3.5,11.8,1.2,28.4,1.3,28.6l1.3,4.6L93.4,151l-9.1,20.3l-6.4-28.2c-6.6-3.1-16.3-8.3-23.1-20
			c-5.3-7.9-6.2-17.6-2.4-27c5.2-12.8,18.4-23,33.5-26.1C91.9,68.8,97.4,68.4,102.4,68.4z"/>
	</g>
</g>
</svg>
