<?xml version="1.0" encoding="utf-8"?>
<!-- Generator: Adobe Illustrator 19.2.1, SVG Export Plug-In . SVG Version: 6.00 Build 0)  -->
<svg version="1.1" id="Layer_1" xmlns="http://www.w3.org/2000/svg" xmlns:xlink="http://www.w3.org/1999/xlink" x="0px" y="0px"
	 viewBox="0 0 256 256" style="enable-background:new 0 0 256 256;" xml:space="preserve">
<g>
	<g>
		<ellipse style="fill:#0066CC;" cx="128" cy="128" rx="128" ry="128"/>
		<path id="path1_17_" style="fill:#FFFFFF;" d="M160.4,140.7h33.2v3.9l-27.2,39.8v0.2H194v5.3h-35.9v-3.7l27.3-39.9V146h-25
			L160.4,140.7L160.4,140.7z M173.1,73.9c-0.7,2.9-1.5,5.9-2.5,8.9L165.8,97h14.8l-4.8-14.2C174.7,79.6,174,76.7,173.1,73.9
			L173.1,73.9L173.1,73.9z M169.5,68.3h7.7l16.8,49.2h-6.8l-5.3-15.5h-17.4l-5.1,15.5h-6.6L169.5,68.3z M88.9,66.1h9.7v105.3
			l30.7-29.9c1.9-1.9,5-1.8,6.9,0.1c1.9,1.9,1.8,5-0.1,6.9l-42.3,41.1l-42.3-41.1c-1.9-1.9-2-5-0.1-6.9s5-2,6.9-0.1l30.6,29.8
			L88.9,66.1z"/>
	</g>
</g>
</svg>
