<?xml version="1.0" encoding="utf-8"?>
<!-- Generator: Adobe Illustrator 19.2.1, SVG Export Plug-In . SVG Version: 6.00 Build 0)  -->
<svg version="1.1" id="Layer_1" xmlns="http://www.w3.org/2000/svg" xmlns:xlink="http://www.w3.org/1999/xlink" x="0px" y="0px"
	 viewBox="0 0 256 256" style="enable-background:new 0 0 256 256;" xml:space="preserve">
<g>
	<g>
		<ellipse style="fill:#99CC00;" cx="128" cy="128" rx="128" ry="128"/>
		<path id="path1_19_" style="fill:#FFFFFF;" d="M70.8,123.3l14.3,19.9c1.6,2.2,1.1,5.3-1.1,6.8c-2.2,1.6-5.2,1.1-6.8-1.1
			l-10.9-15.1c-6.1,1.8-6.5,7.4-6.5,8.6v25h29.4c2.7,0,4.9,2.2,4.9,4.9s-2.2,4.9-4.9,4.9H50v-34.7c-0.1-5.8,3.6-17.4,18-18.8
			L70.8,123.3z M86.8,98.7c-4.5,0-8.2,4.4-8.2,9.9s3.7,9.9,8.2,9.9s8.2-4.4,8.2-9.9C95,103.2,91.3,98.7,86.8,98.7z M192.2,96.5
			l-50.5,55.6l-20.2-24.4c-11.9,2.5-12.7,13.4-12.8,13.9v35.6h63.6v-39.8l21.9-38L192.2,96.5z M86.8,88.9c9.9,0,18,8.8,18,19.7
			s-8.1,19.7-18,19.7s-18-8.8-18-19.7C68.8,97.8,76.8,88.9,86.8,88.9z M193,81l13,17.8L182.2,140v47H99v-45.7
			c0.5-7.6,6-21.9,24-23.7l2.6-0.3l16.4,19.8L193,81z M143.8,78.8c-7.1,0-12.8,6.8-12.8,15.1s5.7,15.1,12.8,15.1s12.8-6.8,12.8-15.1
			S150.9,78.8,143.8,78.8z M143.8,69c12.5,0,22.6,11.2,22.6,24.9s-10.1,24.9-22.6,24.9s-22.6-11.2-22.6-24.9S131.4,69,143.8,69z"/>
	</g>
</g>
</svg>
