<?xml version="1.0" encoding="utf-8"?>
<!-- Generator: Adobe Illustrator 19.2.1, SVG Export Plug-In . SVG Version: 6.00 Build 0)  -->
<svg version="1.1" id="Layer_1" xmlns="http://www.w3.org/2000/svg" xmlns:xlink="http://www.w3.org/1999/xlink" x="0px" y="0px"
	 viewBox="0 0 256 256" style="enable-background:new 0 0 256 256;" xml:space="preserve">
<g>
	<g>
		<ellipse style="fill:#0066CC;" cx="128" cy="128" rx="128" ry="128"/>
		<path id="path1_10_" style="fill:#FFFFFF;" d="M113.4,157.3h29.3v4.9h-29.3V157.3z M79.3,147.5v34.1h97.5v-34.1H79.3z
			 M113.4,113.4h29.3v4.9h-29.3V113.4z M79.3,103.6v34.1h97.5v-34.1H79.3z M113.4,69.5h29.3v4.9h-29.3V69.5z M79.3,59.8v34.1h97.5
			V59.8H79.3z M74.4,50h107.3c2.7,0,4.9,2.2,4.9,4.9v131.6c0,2.7-2.2,4.9-4.9,4.9H167V206h-9.8v-14.6H93.9V206h-9.8v-14.6h-9.8
			c-2.7,0-4.9-2.2-4.9-4.9V54.9C69.5,52.2,71.7,50,74.4,50z"/>
	</g>
</g>
</svg>
