<?xml version="1.0" encoding="utf-8"?>
<svg xmlns="http://www.w3.org/2000/svg" height="256" width="256" viewBox="0 0 256 256">
  <g>
    <ellipse cy="128" cx="128" ry="128" rx="128" fill="#A2A2A2" />
    <path id="path1" transform="rotate(0,128,128) translate(70.2017180919647,59) scale(4.3125,4.3125)  " fill="#FFFFFF" d="M11.580997,2.6999842L11.392,8.5849994C11.392,8.5849994,11.145998,12.474987,6.6629961,12.004986L2.8199925,11.905011 2.8199925,28.624997C2.8199925,28.999997,3.1369941,29.299985,3.5260017,29.299985L23.276998,29.299985C23.664998,29.299985,23.982,28.999997,23.982,28.624997L23.982,3.375003C23.982,3.000003,23.664998,2.6999842,23.276998,2.6999842z M11.397005,0L23.276998,0C25.225011,0,26.805,1.5099807,26.805,3.375003L26.805,28.624997C26.805,30.48999,25.225011,32.000001,23.276998,32.000001L3.5260017,32.000001C1.578995,32.000001,-9.8288183E-08,30.48999,0,28.624997L0,11.504985 1.3959962,10.095011 1.3970033,10.055003 8.7169974,2.6999842 8.6970084,2.6999842 6.7400072,4.6749924 8.7899954,2.5950037 8.8190024,2.5950037 8.8840048,2.5300013 8.8900015,2.5300013z" />
  </g>
</svg>