<?xml version="1.0" encoding="utf-8"?>
<svg xmlns="http://www.w3.org/2000/svg" height="256" width="256" viewBox="0 0 256 256">
  <g>
    <ellipse cy="128" cx="128" ry="128" rx="128" fill="#2A5699" />
    <path id="path1" transform="rotate(0,128,128) translate(59,61.9280956195531) scale(4.31236531261064,4.31236531261064)  " fill="#FFFFFF" d="M14.800059,9.8040146L12.708993,9.9830307 11.430061,17.900021 9.7700264,10.255003 7.8089654,10.255003 6.2989546,17.548031 5.1679722,10.45703 3.4090601,10.45703 5.2440225,20.489987 7.2309624,20.540036 8.6899473,13.473997 10.375008,20.765988 12.435291,20.765988z M19.125013,3.5159909L31.597069,3.5159909 31.598045,3.5159909C31.819969,3.5159909,32.000023,3.6950068,32.001,3.9169914L32.001,26.697993C32.001,26.921992,31.821068,27.101008,31.598045,27.101008L19.125013,27.101008 19.125013,23.983029 29.032004,23.983029 29.032004,22.676022 19.125013,22.676022 19.125013,20.765011 29.032004,20.765011 29.032004,19.457028 19.125013,19.457028 19.125013,17.546017 29.032004,17.546017 29.032004,16.23901 19.125013,16.23901 19.125013,14.328 29.032004,14.328 29.032004,13.020994 19.125013,13.020994 19.125013,11.110045 29.032004,11.110045 29.032004,9.8020005 19.125013,9.8020005 19.125013,7.8909902 29.032004,7.8909902 29.032004,6.5830068 19.125013,6.5830068z M18.506972,0L18.506972,30.643 0,27.424006 0,3.0840449z" />
  </g>
</svg>