<?xml version="1.0" encoding="utf-8"?>
<svg xmlns="http://www.w3.org/2000/svg" height="256" width="256" viewBox="0 0 256 256">
  <g>
    <ellipse cy="128" cx="128" ry="128" rx="128" fill="#DA251C" />
    <path id="path1" transform="rotate(0,128,128) translate(59,66.2732778850965) scale(4.31263752387976,4.31263752387976)  " fill="#FFFFFF" d="M7.2649498,23.217675C7.2649498,23.217675 4.2689362,23.904692 2.0199886,25.850695 2.0199886,25.850695 0.51694635,27.511721 1.7809763,27.259705 1.7809763,27.259705 4.9459339,26.876706 7.2649498,23.217675z M24.655738,20.626698C24.588002,20.626984,24.520009,20.628273,24.451789,20.630616L24.450812,20.630616C24.450812,20.630616 25.950803,23.910675 29.09678,23.365687 29.09678,23.365687 30.158784,23.035666 29.537755,22.306656 29.364783,22.102675 29.297767,22.007641 29.280799,21.963635 29.452796,22.062634 29.567784,22.139662 29.567784,22.139662 29.567784,22.139662 29.237769,21.854624 29.280799,21.963635 28.607516,21.572264 26.75553,20.617825 24.655738,20.626698z M14.896858,12.847583C14.310864,15.794571,11.529876,20.680664,11.529876,20.680664L19.894874,19.204638C17.90685,18.031592,14.896858,12.847583,14.896858,12.847583z M11.347988,2.6056115C10.969022,2.5808589 11.046907,3.8365132 11.046907,3.8365132 11.052889,6.1415276 12.873861,8.5495085 12.873861,8.5495085 12.808921,4.770482 11.689909,2.8584768 11.689909,2.8584771 11.547225,2.685223 11.435442,2.6113235 11.347988,2.6056115z M11.698649,0.0004385177C11.953246,-0.00850315 12.256566,0.1185393 12.616905,0.45147205 12.616905,0.45147202 15.536869,2.0264379 14.770883,9.9435648 14.770883,9.9435648 20.920867,18.263588 23.441848,19.628653 23.441848,19.628653 28.477765,19.004624 31.729758,22.505633 31.729758,22.505633 32.894788,24.902687 30.377776,25.353682 30.377776,25.353682 24.931829,25.829699 21.698817,21.164616L10.673924,22.88967C10.673924,22.88967,4.1779337,30.392729,0.39298472,28.236704L0.39396126,28.237681C0.39396131,28.245737 -0.91901853,27.24469 1.2489364,24.981669 1.2489363,24.981669 4.2079625,22.708638 8.8749247,21.422675 8.8749247,21.422675 12.606895,16.882594 13.103902,10.543546 13.103902,10.543546 9.7739058,8.046513 10.450903,2.1634631 10.450903,2.1634631 10.699843,0.03551713 11.698649,0.0004385177z" />
  </g>
</svg>