<?xml version="1.0" encoding="utf-8"?>
<svg xmlns="http://www.w3.org/2000/svg" height="256" width="256" viewBox="0 0 256 256">
  <g>
    <ellipse cy="128" cx="128" ry="128" rx="128" fill="#0066CC" />
    <path id="path1" transform="rotate(0,128,128) translate(75.3724071383476,59) scale(4.3125,4.3125)  " fill="#FFFFFF" d="M7.2900098,25.752991C7.9280103,25.752991 8.319001,26.054001 8.319001,26.617996 8.319001,27.210999 7.8980115,27.548996 7.207002,27.548996 7.0189984,27.548996 6.8690045,27.541 6.757005,27.511002L6.757005,25.798996C6.8540051,25.776001,7.0339978,25.752991,7.2900098,25.752991z M10.229006,25.084991L10.229006,30.147995 11.078005,30.147995 11.078005,28.337997C11.078005,27.503998,11.071001,26.834991,11.033006,26.181L11.056001,26.173996C11.303011,26.744995,11.642,27.369003,11.964998,27.925003L13.287004,30.147995 14.240999,30.147995 14.240999,25.084991 13.384004,25.084991 13.384004,26.850998C13.384004,27.623993,13.406999,28.278,13.467012,28.953003L13.452013,28.953003C13.219011,28.404999,12.926012,27.819,12.587999,27.255997L11.281008,25.084991z M7.2530072,25.046997C6.6289986,25.046997,6.171006,25.093002,5.8399971,25.153L5.8399971,30.147995 6.757005,30.147995 6.757005,28.23999C6.8770001,28.261993 7.0339978,28.270004 7.207002,28.270004 7.8610089,28.270004 8.4390114,28.097 8.8070085,27.729004 9.093004,27.457993 9.2429979,27.059998 9.2429979,26.580002 9.2429979,26.106995 9.0480059,25.709 8.747011,25.460999 8.424012,25.190002 7.9280103,25.046997 7.2530072,25.046997z M18.052005,25.031998C16.377002,25.031998 15.235002,26.061996 15.235002,27.662003 15.227999,28.427994 15.490007,29.095993 15.941011,29.524994 16.422,29.983002 17.068011,30.201004 17.924014,30.201004 18.600009,30.201004 19.232013,30.035004 19.555011,29.914993L19.555011,27.352997 17.767001,27.352997 17.767001,28.082001 18.661013,28.082001 18.661013,29.343994C18.540011,29.403992 18.29201,29.44899 17.962008,29.44899 16.910006,29.44899 16.204013,28.765991 16.204013,27.615997 16.204013,26.436996 16.963,25.798996 18.045001,25.798996 18.578006,25.798996 18.916003,25.895996 19.194003,26.015991L19.397006,25.272995C19.164004,25.160004,18.676013,25.031998,18.052005,25.031998z M17.102999,18.625L19.533007,18.625 19.533007,21.054001 17.102999,21.054001z M12.246004,18.625L14.675005,18.625 14.675005,21.054001 12.246004,21.054001z M7.3890088,18.537994L9.8170031,18.537994 9.8170031,20.966995 7.3890088,20.966995z M4.9609993,16.108994L7.3890088,16.108994 7.3890088,18.537994 4.9609993,18.537994z M17.020007,13.679993L19.449008,13.679993 19.449008,16.108994 17.102999,16.108994 17.102999,18.537994 14.675005,18.537994 14.675005,16.108994 17.020007,16.108994z M12.163011,13.679993L14.591005,13.679993 14.591005,16.108994 12.246004,16.108994 12.246004,18.537994 9.8170031,18.537994 9.8170031,16.108994 12.163011,16.108994z M7.3050092,13.593994L9.7330034,13.593994 9.7330034,16.022995 7.3050092,16.022995z M14.591005,11.164993L17.020007,11.164993 17.020007,13.593994 14.591005,13.593994z M9.7340105,11.164993L12.164003,11.164993 12.164003,13.593994 9.7340105,13.593994z M4.8769997,11.164993L7.3050092,11.164993 7.3050092,13.593994 4.8769997,13.593994z M2.2840047,2.4179993L2.2840047,22.778 22.124011,22.778 22.124011,8.5029907 15.837999,8.5029907 15.837999,2.4179993z M0,0L15.837999,0 17.130008,0 24.407,7.125 24.407,32 0,32z" />
  </g>
</svg>