<?xml version="1.0" encoding="utf-8"?>
<!-- Generator: Adobe Illustrator 19.2.1, SVG Export Plug-In . SVG Version: 6.00 Build 0)  -->
<svg version="1.1" id="Layer_1" xmlns="http://www.w3.org/2000/svg" xmlns:xlink="http://www.w3.org/1999/xlink" x="0px" y="0px"
	 viewBox="0 0 256 256" style="enable-background:new 0 0 256 256;" xml:space="preserve">
<g>
	<g>
		<ellipse style="fill:#0099CC;" cx="128" cy="128" rx="128" ry="128"/>
		<path id="path1_32_" style="fill:#FFFFFF;" d="M99.3,123.8c4.2,0,8.4,1.6,11.7,4.8l-6.9,6.9c-2.6-2.6-6.9-2.6-9.5,0l-32.8,32.8
			c-2.6,2.6-2.6,6.9,0,9.5l16.4,16.4c2.5,2.5,7,2.5,9.5,0l32.8-32.8c1.3-1.3,2-3,2-4.8s-0.7-3.5-2-4.8l6.9-6.9
			c3.1,3.1,4.8,7.2,4.8,11.7s-1.7,8.5-4.8,11.7l-32.8,32.8c-3.1,3.1-7.3,4.8-11.7,4.8c-4.4,0-8.5-1.7-11.7-4.8l-16.4-16.4
			c-6.4-6.4-6.4-16.9,0-23.3l32.8-32.8C90.8,125.4,95.1,123.8,99.3,123.8z M152.6,98.5c1.2,0,2.5,0.5,3.4,1.4c1.9,1.9,1.9,5,0,6.9
			L106.8,156c-1,1-2.2,1.4-3.4,1.4c-1.2,0-2.5-0.5-3.4-1.4c-1.9-1.9-1.9-5,0-6.9l49.2-49.2C150.1,99,151.4,98.5,152.6,98.5z
			 M173.1,50c4.2,0,8.4,1.6,11.7,4.8l16.4,16.4c3.1,3.1,4.8,7.2,4.8,11.7c0,4.4-1.7,8.5-4.8,11.6l-32.8,32.8
			c-3.1,3.1-7.3,4.8-11.7,4.8s-8.5-1.7-11.7-4.8l6.9-6.9c2.5,2.5,7,2.5,9.5,0l32.8-32.8c1.3-1.3,2-3,2-4.8s-0.7-3.5-2-4.8
			l-16.4-16.4c-2.6-2.6-6.9-2.6-9.5,0l-32.8,32.8c-2.6,2.6-2.6,6.9,0,9.5l-6.9,6.9c-6.4-6.4-6.4-16.9,0-23.3l32.8-32.8
			C164.7,51.6,168.9,50,173.1,50z"/>
	</g>
</g>
</svg>
