<?xml version="1.0" encoding="utf-8"?>
<!-- Generator: Adobe Illustrator 19.2.1, SVG Export Plug-In . SVG Version: 6.00 Build 0)  -->
<svg version="1.1" id="Layer_1" xmlns="http://www.w3.org/2000/svg" xmlns:xlink="http://www.w3.org/1999/xlink" x="0px" y="0px"
	 viewBox="0 0 256 256" style="enable-background:new 0 0 256 256;" xml:space="preserve">
<g>
	<g>
		<ellipse style="fill:#333366;" cx="128" cy="128" rx="128" ry="128"/>
		<path id="path1_12_" style="fill:#FFFFFF;" d="M196.2,117.8l-48.6,25.3v48.7l48.6-25L196.2,117.8L196.2,117.8z M60,113.7v48.7
			l77.3,30.6v-48.9L60,113.7z M117.7,91.4c0.3,0,0.6,0.1,0.9,0.2l24.1,10.4c1.2,0.5,1.8,2,1.3,3.2c-0.4,0.9-1.3,1.5-2.2,1.5
			c-0.3,0-0.6-0.1-1-0.2l-24.1-10.4c-1.2-0.5-1.8-2-1.3-3.2C115.8,92,116.8,91.4,117.7,91.4z M106.9,85.9l-41.2,18.5l76.1,30.2
			l49.4-25l-38.6-15.3v23.8l2.2,0.9c1.4,0.6,2,2.1,1.3,3.3c-0.5,0.9-1.5,1.4-2.6,1.4c-0.4,0-0.9-0.1-1.3-0.3L101.4,102
			c-1.4-0.6-2-2.1-1.3-3.3c0.7-1.2,2.4-1.7,3.8-1.1l2.9,1.2L106.9,85.9z M117.7,79.5c0.3,0,0.6,0.1,0.9,0.2l24.1,10.4
			c1.2,0.5,1.8,2,1.3,3.2c-0.4,0.9-1.3,1.5-2.2,1.5c-0.3,0-0.6-0.1-1-0.2l-24.1-10.4c-1.2-0.5-1.8-2-1.3-3.2
			C115.8,80,116.8,79.5,117.7,79.5z M117.7,66.8c0.3,0,0.6,0.1,0.9,0.2l24.1,10.4c1.2,0.5,1.8,2,1.3,3.2c-0.4,0.9-1.3,1.5-2.2,1.5
			c-0.3,0-0.6-0.1-1-0.2l-24.1-10.4c-1.2-0.5-1.8-2-1.3-3.2C115.8,67.4,116.8,66.8,117.7,66.8z M112.6,57.8v43.3l34.3,14.5V71.8
			L112.6,57.8z M106.9,50l45.8,18.7v16.7l53.4,21.5v65.9l-64,33.2L50,168.8V103l56.9-25.3V50z"/>
	</g>
</g>
</svg>
