<?xml version="1.0" encoding="utf-8"?>
<!-- Generator: Adobe Illustrator 19.2.1, SVG Export Plug-In . SVG Version: 6.00 Build 0)  -->
<svg version="1.1" id="Layer_1" xmlns="http://www.w3.org/2000/svg" xmlns:xlink="http://www.w3.org/1999/xlink" x="0px" y="0px"
	 viewBox="0 0 256 256" style="enable-background:new 0 0 256 256;" xml:space="preserve">
<g>
	<g>
		<ellipse style="fill:#990099;" cx="128" cy="128" rx="128" ry="128"/>
		<path id="path1_34_" style="fill:#FFFFFF;" d="M88.6,196.2H191v9.8H88.6V196.2z M74.8,165.4v22.3l18.6-12.5L74.8,165.4z
			 M110.1,121l4.3,2.3l-17.6,33l-4.3-2.3L110.1,121z M112,90.8L75.2,160l22.4,11.8l36.7-69L112,90.8z M126.6,63.2l-10.1,18.9
			l7.2,3.9l15,8.1l10.1-18.9L126.6,63.2z M122.6,50L162,71.3l-19.2,36.1l-38.3,72L65,206l0.1-47.8l38.3-72.1L122.6,50z"/>
	</g>
</g>
</svg>
