<?xml version="1.0" encoding="utf-8"?>
<!-- Generator: Adobe Illustrator 19.2.1, SVG Export Plug-In . SVG Version: 6.00 Build 0)  -->
<svg version="1.1" id="Layer_1" xmlns="http://www.w3.org/2000/svg" xmlns:xlink="http://www.w3.org/1999/xlink" x="0px" y="0px"
	 viewBox="0 0 256 256" style="enable-background:new 0 0 256 256;" xml:space="preserve">
<g>
	<g>
		<ellipse style="fill:#0066CC;" cx="128" cy="128" rx="128" ry="128"/>
		<path id="path1_21_" style="fill:#FFFFFF;" d="M106.1,94.4c-2.7,0-5.5,1-7.6,3.1c-4.2,4.2-4.2,11,0,15.2c4.1,4.1,11.1,4.1,15.2,0
			c4.2-4.2,4.2-11,0-15.2C111.6,95.4,108.9,94.4,106.1,94.4z M106.1,84.6c5.2,0,10.5,2,14.5,6c8,8,8,21,0,29c-3.9,3.9-9,6-14.5,6
			s-10.6-2.1-14.5-6c-8-8-8-21,0-29C95.6,86.6,100.9,84.6,106.1,84.6z M122.2,69.2l-47.3,4.7l-4.7,47.3l80.1,80.1l52-52L122.2,69.2z
			 M125.8,59l90.2,90.2L150.2,215L60,124.7l6-59.8L125.8,59z"/>
	</g>
</g>
</svg>
