<?xml version="1.0" encoding="utf-8"?>
<!-- Generator: Adobe Illustrator 19.2.1, SVG Export Plug-In . SVG Version: 6.00 Build 0)  -->
<svg version="1.1" id="Layer_1" xmlns="http://www.w3.org/2000/svg" xmlns:xlink="http://www.w3.org/1999/xlink" x="0px" y="0px"
	 viewBox="0 0 256 256" style="enable-background:new 0 0 256 256;" xml:space="preserve">
<g>
	<g>
		<ellipse style="fill:#99CC00;" cx="128" cy="128" rx="128" ry="128"/>
	</g>
	<g>
		<path style="fill:#FFFFFF;" d="M111,156.1v-8c0-6.9,1.5-12.9,4.4-18c2.9-5.1,8.3-10.5,16.1-16.2c7.5-5.4,12.5-9.8,14.9-13.1
			c2.4-3.4,3.6-7.1,3.6-11.3c0-4.7-1.7-8.2-5.2-10.6c-3.4-2.4-8.2-3.7-14.4-3.7c-10.8,0-23,3.5-36.8,10.5L81.9,62.2
			c16-9,32.9-13.4,50.9-13.4c14.8,0,26.5,3.5,35.2,10.6s13.1,16.6,13.1,28.4c0,7.9-1.8,14.7-5.4,20.4c-3.6,5.7-10.4,12.2-20.4,19.4
			c-6.9,5.1-11.2,9-13.1,11.6c-1.8,2.7-2.7,6.1-2.7,10.4v6.5H111z M107.5,192.9c0-6,1.6-10.6,4.8-13.7c3.2-3.1,7.9-4.6,14.1-4.6
			c6,0,10.6,1.6,13.8,4.7c3.3,3.2,4.9,7.7,4.9,13.6c0,5.7-1.7,10.1-4.9,13.4c-3.3,3.3-7.9,4.9-13.8,4.9c-6,0-10.7-1.6-14-4.8
			C109.2,203.2,107.5,198.7,107.5,192.9z"/>
	</g>
</g>
</svg>
