<?xml version="1.0" encoding="utf-8"?>
<!-- Generator: Adobe Illustrator 19.2.1, SVG Export Plug-In . SVG Version: 6.00 Build 0)  -->
<svg version="1.1" id="Layer_1" xmlns="http://www.w3.org/2000/svg" xmlns:xlink="http://www.w3.org/1999/xlink" x="0px" y="0px"
	 viewBox="0 0 256 256" style="enable-background:new 0 0 256 256;" xml:space="preserve">
<g>
	<g>
		<ellipse style="fill:#990099;" cx="128" cy="128" rx="128" ry="128"/>
		<path id="path1_16_" style="fill:#FFFFFF;" d="M130.4,129.4c-16.9,0-30.7,13.8-30.7,30.7v13.6h61.5v-13.6
			C161.1,143.2,147.3,129.4,130.4,129.4z M130.4,120c22.2,0,40.2,18,40.2,40.2v23H90.2v-23C90.2,138,108.2,120,130.4,120z
			 M177.6,113.8c17,0,28.4,11.4,28.4,28.4v28.4h-31.1V161h21.6v-18.9c0-11.7-7.3-18.9-18.9-18.9c-5.7,0-11.3,2.3-15.3,6.4l-6.7-6.6
			C161.3,117.1,169.3,113.8,177.6,113.8z M81,113.8c8.7,0,17.5,3.5,23.1,9.2l-6.7,6.6c-3.8-3.9-10.2-6.4-16.3-6.4
			c-10.7,0-21.6,6.5-21.6,18.9V161h26.3v9.5H50v-28.4C50,126,63.3,113.8,81,113.8z M177.6,86.5c-4.7,0-8.6,3.9-8.6,8.6
			s3.8,8.6,8.6,8.6c4.7,0,8.6-3.9,8.6-8.6C186.2,90.3,182.4,86.5,177.6,86.5z M81,86.5c-4.7,0-8.6,3.9-8.6,8.6s3.8,8.6,8.6,8.6
			c4.7,0,8.6-3.9,8.6-8.6C89.5,90.3,85.7,86.5,81,86.5z M130.2,82.3c-7.1,0-12.8,5.7-12.8,12.8c0,7.1,5.7,12.8,12.8,12.8
			s12.8-5.7,12.8-12.8S137.2,82.3,130.2,82.3z M177.6,77c9.9,0,18,8.1,18,18s-8.1,18-18,18s-18-8.1-18-18S167.7,77,177.6,77z M81,77
			c9.9,0,18,8.1,18,18s-8.1,18-18,18s-18-8.1-18-18S71,77,81,77z M130.2,72.8c12.3,0,22.3,10,22.3,22.3s-10,22.3-22.3,22.3
			s-22.3-10-22.3-22.3S117.9,72.8,130.2,72.8z"/>
	</g>
</g>
</svg>
