<?xml version="1.0" encoding="utf-8"?>
<!-- Generator: Adobe Illustrator 19.2.1, SVG Export Plug-In . SVG Version: 6.00 Build 0)  -->
<svg version="1.1" id="Layer_1" xmlns="http://www.w3.org/2000/svg" xmlns:xlink="http://www.w3.org/1999/xlink" x="0px" y="0px"
	 viewBox="0 0 256 256" style="enable-background:new 0 0 256 256;" xml:space="preserve">
<g>
	<g>
		<ellipse style="fill:#333366;" cx="128" cy="128" rx="128" ry="128"/>
		<path id="path1_7_" style="fill:#FFFFFF;" d="M135.9,141.5l-1.8,1.3c-1.1,0.8-2.3,1.7-3.4,2.5l-1.2,0.9l3.5,29.9l5.3-8.7l11.3,5.4
			L135.9,141.5z M160.9,123.1l-1,0.8l-3.4,2.5l14.9,20.2l1.4-7l9.5-2.6L160.9,123.1z M102.2,109.3l-1.4,1
			c-8,5.7-15.1,10.7-20.4,14.5c8.2,2.3,17.7,9.3,20.5,29.6c5.3-3.8,11.1-7.9,17.2-12.3l0.8-0.5v-0.3l0.6-0.1l1.8-1.3l1-0.8v-0.5
			c1.1-16.9-11.4-25.3-19.3-28.9L102.2,109.3z M122.4,95.2l-1.9,1.3c-4.6,3.2-9.1,6.3-13.4,9.4l-0.3,0.2l0.7,0.4
			c8.2,4.4,19.1,13,19.9,28.3v0.7l3.8-2.7c2.9-2.1,5.8-4.2,8.7-6.3l0.8-0.6l0.1-1c1.4-16.5-11.3-25.8-18-29.4L122.4,95.2z
			 M142.8,81.2l-0.7,0.5c-4.1,2.8-8.3,5.6-12.5,8.5l-2.9,2l0.2,0.1c7.2,4.5,18.4,13.9,18.9,29.2v0.6l2.8-2c3.2-2.4,6.4-4.7,9.6-7
			l0.8-0.6l0.1-0.5c3.4-15-9.1-25.8-15.6-30.3L142.8,81.2z M178.3,60.6c-1.8,0-3.6,0.4-5.2,1.3c-6.3,3.6-15.1,9.2-25,15.8l-1,0.7
			l0.8,0.6c6.7,5.1,16.8,15,16.6,28.5v1l2.8-2.1c9.8-7.3,18.4-13.9,24.5-18.8c7.9-6.3,2.8-15.3,1-17.9
			C189.4,64.6,183.7,60.6,178.3,60.6z M178.6,50.7c8.8,0.2,17.4,6,22.4,13.4c7.5,11.1,6.3,23.5-3,31c-6.7,5.3-16.2,12.6-26.9,20.6
			l-1.7,1.2l36.7,23.7l-24.8,6.7l-4.6,22.8l-28.1-38l-0.3,0.2c-1.3,0.9-2.6,1.9-3.9,2.8l-0.4,0.3l25,57.6l-27-13l-15.4,25.3
			l-6.2-52.6l-3,2.1c-6.4,4.6-12.4,8.8-17.6,12.5c-0.1,0-0.1,0.1-0.2,0.1c-2.6,1.8-5,3.5-7.2,5.1c-7.5,5.3-13.9,7-19,7
			c-3.7,0-6.7-0.9-9-2c-9.3-4.5-13.9-15.6-14.4-24.6c-0.4-7,1.7-12.5,5.6-15c2.3-1.4,5.3-0.8,6.7,1.5s0.8,5.3-1.5,6.7
			c-1.6,1.4-2.2,11.6,3.4,18.7c5.1,6.6,12.7,6.5,22.6-0.4c1.6-1.1,3.2-2.3,5-3.5C90,133,76.3,133.3,69.7,133.5h-1.4
			c-2.4,0-4.5-1.6-5.1-3.8c-0.7-2.3,0.2-4.7,2.1-6c2.9-2.1,75.3-54.6,103-70.4C171.6,51.4,175.1,50.7,178.6,50.7z"/>
	</g>
</g>
</svg>
