<?xml version="1.0" encoding="utf-8"?>
<!-- Generator: Adobe Illustrator 19.2.1, SVG Export Plug-In . SVG Version: 6.00 Build 0)  -->
<svg version="1.1" id="Layer_1" xmlns="http://www.w3.org/2000/svg" xmlns:xlink="http://www.w3.org/1999/xlink" x="0px" y="0px"
	 viewBox="0 0 256 256" style="enable-background:new 0 0 256 256;" xml:space="preserve">
<g>
	<g>
		<ellipse style="fill:#0066CC;" cx="128" cy="128" rx="128" ry="128"/>
		<path id="path1_5_" style="fill:#FFFFFF;" d="M79.5,91.1v100.5c0,2.6,2.2,4.7,5,4.7h90.2c1,0,1.8-0.7,1.8-1.6V95H92.2
			C87.5,95,83.2,93.6,79.5,91.1L79.5,91.1z M92.2,59.9c-6.9,0-12.6,5.6-12.6,12.6c0,6.9,5.6,12.6,12.6,12.6h54.1v-7.6H92.1
			c-2.7,0-5-2.2-5-5s2.2-5,5-5h54.2l9.8,0v17.5h11.6V59.9H92.2z M92.2,50h85.3v9.9h-0.1v25.1h9V95h-0.1v99.7
			c0,6.2-5.2,11.3-11.5,11.3H84.5c-8.1,0-14.7-6.5-14.7-14.4v-117l-0.1-0.9c0-0.4,0-0.8,0-1.2C69.7,60.1,79.8,50,92.2,50z"/>
	</g>
</g>
</svg>
