<?xml version="1.0" encoding="utf-8"?>
<!-- Generator: Adobe Illustrator 19.2.1, SVG Export Plug-In . SVG Version: 6.00 Build 0)  -->
<svg version="1.1" id="Layer_1" xmlns="http://www.w3.org/2000/svg" xmlns:xlink="http://www.w3.org/1999/xlink" x="0px" y="0px"
	 viewBox="0 0 256 256" style="enable-background:new 0 0 256 256;" xml:space="preserve">
<g>
	<g>
		<ellipse style="fill:#99CC00;" cx="128" cy="128" rx="128" ry="128"/>
		<path id="path1_2_" style="fill:#FFFFFF;" d="M98.6,170.3H206v9.8H98.6V170.3z M67.2,169.5c-4.1,0-7.5,3.3-7.5,7.5
			c0,4.1,3.4,7.5,7.5,7.5s7.5-3.3,7.5-7.5C74.7,172.9,71.4,169.5,67.2,169.5z M67.2,159.7c9.5,0,17.2,7.7,17.2,17.2
			s-7.7,17.2-17.2,17.2S50,186.5,50,177S57.7,159.7,67.2,159.7z M98.6,121.5H206v9.8H98.6V121.5z M67.2,120.5
			c-4.1,0-7.5,3.3-7.5,7.5c0,4.1,3.4,7.5,7.5,7.5s7.5-3.3,7.5-7.5C74.7,123.9,71.4,120.5,67.2,120.5z M67.2,110.8
			c9.5,0,17.2,7.7,17.2,17.2s-7.7,17.2-17.2,17.2S50,137.5,50,128S57.7,110.8,67.2,110.8z M98.6,72.7H206v9.8H98.6V72.7z M67.2,71.6
			c-4.1,0-7.5,3.3-7.5,7.5c0,4.1,3.4,7.5,7.5,7.5s7.5-3.3,7.5-7.5S71.4,71.6,67.2,71.6z M67.2,61.8c9.5,0,17.2,7.7,17.2,17.2
			s-7.7,17.2-17.2,17.2S50,88.5,50,79S57.7,61.8,67.2,61.8z"/>
	</g>
</g>
</svg>
