<?xml version="1.0" encoding="utf-8"?>
<!-- Generator: Adobe Illustrator 19.2.1, SVG Export Plug-In . SVG Version: 6.00 Build 0)  -->
<svg version="1.1" id="Layer_1" xmlns="http://www.w3.org/2000/svg" xmlns:xlink="http://www.w3.org/1999/xlink" x="0px" y="0px"
	 viewBox="0 0 256 256" style="enable-background:new 0 0 256 256;" xml:space="preserve">
<g>
	<g>
		<ellipse style="fill:#0066CC;" cx="128" cy="128" rx="128" ry="128"/>
	</g>
	<g>
		<path style="fill:#FFFFFF;" d="M152.6,99.7c-6.3,0-12.7,0-19,0c-5.7,0-11.8,5.3-12.6,10.7c-0.4,2.5-0.8,5.1-1.3,7.6
			c-1.8,9.6-3.6,19.1-5.3,28.7c-1.5,8.3,2.2,13.1,10.4,13.1c11.6,0.1,23.3,0.1,34.9,0c8.1-0.1,13.4-4.7,14.8-12.7
			c2-11.8,4.1-23.6,6-35.4c1.3-7.6-2.4-11.9-10.2-11.9C164.4,99.7,158.5,99.7,152.6,99.7z M92.9,119.7L92.9,119.7
			c1.8,0,3.5,0.1,5.3,0c4.2-0.1,5.8-1.3,6.6-5.5c0.8-4,1.5-7.9,2.1-11.9c0.5-3.2-0.8-4.8-4-4.9c-4.1-0.1-8.3-0.1-12.5,0
			c-2.9,0.1-5,1.4-5.6,4.4c-0.9,4.5-1.7,9-2.4,13.5c-0.4,2.7,0.9,4.2,3.6,4.4C88.3,119.8,90.6,119.7,92.9,119.7z M91.1,132L91.1,132
			c-2.1,0-4.2-0.1-6.2,0c-3.5,0.1-5.2,1.4-5.9,4.8c-0.9,4.2-1.6,8.3-2.2,12.5c-0.5,3.4,0.9,4.9,4.3,5c3.9,0.1,7.9,0.1,11.8,0
			c3.5-0.1,5.5-1.7,6.1-5.1c0.8-4.2,1.6-8.4,2.2-12.6c0.5-3-0.8-4.5-3.9-4.7C95.3,131.9,93.2,132,91.1,132z M161.1,167
			c-2.1,0-4.1,0-6.2,0c-3,0-5,1.6-5.6,4.5c-0.9,4.4-1.7,8.8-2.3,13.2c-0.4,3,0.9,4.5,4,4.6c4.2,0.1,8.5,0.1,12.7,0
			c2.6-0.1,4.7-1.4,5.2-4.1c1-4.7,1.8-9.3,2.5-14.1c0.4-2.6-1.1-4.1-3.8-4.1C165.5,167,163.3,167,161.1,167z M113.9,81.5
			c2.1-0.3,5.3,1.1,6.3-2.5c0.6-2.3,1.1-4.7,1.2-7c0.1-0.9-1-2.6-1.6-2.6c-2.8-0.3-5.6-0.3-8.4,0c-0.8,0.1-1.8,1.3-2.2,2.2
			c-0.5,1.1-0.5,2.4-0.7,3.6C107.4,81.5,107.4,81.5,113.9,81.5z M90.2,166.4c-1.1,0-2.4-0.3-3.4,0.1c-1.2,0.5-2.7,1.3-3.1,2.3
			c-0.8,2.3-1,4.8-1.4,7.3c-0.3,1.8,0.5,2.7,2.4,2.7c2.2,0,4.3,0,6.5,0c2.1,0,3.2-1.1,3.5-3.1c0.2-1.1,0.4-2.2,0.6-3.4
			C96.3,166.4,96.3,166.4,90.2,166.4z M128.5,189.5c6.2,0,6.2,0,7.2-6.2c0.2-1.2,0.6-2.5,0.5-3.7c0-0.8-0.7-2.2-1.1-2.2
			c-3.2-0.1-6.5-0.5-9.5,0.3c-1.2,0.3-1.8,3.4-2.3,5.3C122,189.5,122.1,189.5,128.5,189.5z M67.7,103.2c4.5,0,5.7-1.4,5.7-5.1
			c0-2.4-1.9-1.8-3.2-1.8c-3.3-0.1-4.7,1.4-4.4,5.1C65.9,102.2,67.5,103,67.7,103.2z M126.2,88.9c4.4,0,5.1-1,5.4-4.8
			c0.2-2.5-1.5-2.3-3.1-2.3c-3.3,0-4.5,1.2-4.2,5C124.4,87.8,126,88.6,126.2,88.9z"/>
		<path style="fill:#FFFFFF;" d="M190.2,71.6c-0.8,3.7-1.7,7.4-2.4,11.2c-0.9,4.7-2.5,6.1-7.4,6.1c-3.5,0-7.1,0.1-10.6,0
			c-3.6-0.1-4.9-1.5-4.4-5.1c0.6-4.2,1.4-8.4,2.2-12.5c0.6-3,2.6-4.6,5.8-4.6c3.7,0,7.5,0.1,11.2,0c2.4-0.1,4.2,0.6,5.6,2.6
			C190.2,69.9,190.2,70.7,190.2,71.6z"/>
		<path style="fill:#FFFFFF;" d="M152.6,99.7c5.9,0,11.8,0,17.8,0c7.7,0,11.5,4.3,10.2,11.9c-2,11.8-4,23.6-6,35.4
			c-1.4,8-6.7,12.7-14.8,12.7c-11.6,0.1-23.3,0.1-34.9,0c-8.2-0.1-12-4.9-10.4-13.1c1.8-9.6,3.6-19.1,5.3-28.7
			c0.5-2.5,0.9-5.1,1.3-7.6c0.8-5.4,6.9-10.6,12.6-10.7C139.9,99.6,146.3,99.7,152.6,99.7z"/>
		<path style="fill:#FFFFFF;" d="M92.9,119.7c-2.3,0-4.6,0.1-6.8,0c-2.7-0.1-4-1.7-3.6-4.4c0.7-4.5,1.5-9,2.4-13.5
			c0.6-3,2.8-4.3,5.6-4.4c4.1-0.1,8.3-0.1,12.5,0c3.2,0.1,4.5,1.7,4,4.9c-0.6,4-1.3,8-2.1,11.9c-0.9,4.1-2.4,5.4-6.6,5.5
			C96.4,119.8,94.7,119.7,92.9,119.7L92.9,119.7z"/>
		<path style="fill:#FFFFFF;" d="M91.1,132c2.1,0,4.2-0.1,6.2,0c3,0.2,4.3,1.7,3.9,4.7c-0.7,4.2-1.4,8.4-2.2,12.6
			c-0.7,3.3-2.6,5-6.1,5.1c-3.9,0.1-7.9,0.1-11.8,0c-3.4-0.1-4.7-1.6-4.3-5c0.6-4.2,1.3-8.4,2.2-12.5c0.7-3.4,2.4-4.7,5.9-4.8
			C87,132,89,132,91.1,132L91.1,132z"/>
		<path style="fill:#FFFFFF;" d="M161.1,167c2.2,0,4.4,0,6.5,0c2.7,0,4.2,1.5,3.8,4.1c-0.6,4.7-1.5,9.4-2.5,14.1
			c-0.6,2.6-2.6,4-5.2,4.1c-4.2,0.1-8.5,0.1-12.7,0c-3.1-0.1-4.4-1.6-4-4.6c0.6-4.4,1.3-8.8,2.3-13.2c0.6-2.8,2.6-4.4,5.6-4.5
			C157,167,159.1,167,161.1,167z"/>
		<path style="fill:#FFFFFF;" d="M113.9,81.5c-6.5,0-6.5,0-5.4-6.3c0.2-1.2,0.2-2.5,0.7-3.6c0.4-0.9,1.4-2.2,2.2-2.2
			c2.8-0.3,5.6-0.3,8.4,0c0.7,0.1,1.7,1.8,1.6,2.6c-0.1,2.4-0.6,4.7-1.2,7C119.2,82.6,116,81.2,113.9,81.5z"/>
		<path style="fill:#FFFFFF;" d="M90.2,166.4c6.1,0,6.1,0,5.1,6c-0.2,1.1-0.4,2.2-0.6,3.4c-0.3,2-1.4,3.1-3.5,3.1
			c-2.2,0-4.3,0-6.5,0c-1.9,0-2.7-0.9-2.4-2.7c0.4-2.4,0.6-5,1.4-7.3c0.4-1,1.9-1.9,3.1-2.3C87.9,166.1,89.1,166.4,90.2,166.4z"/>
		<path style="fill:#FFFFFF;" d="M128.5,189.5c-6.4,0-6.5,0-5.1-6.4c0.4-1.9,1.1-5,2.3-5.3c3-0.8,6.3-0.5,9.5-0.3
			c0.4,0,1.1,1.4,1.1,2.2c0.1,1.2-0.3,2.4-0.5,3.7C134.6,189.5,134.6,189.5,128.5,189.5z"/>
		<path style="fill:#FFFFFF;" d="M67.7,103.2c-0.2-0.2-1.8-0.9-1.9-1.8c-0.3-3.7,1.1-5.2,4.4-5.1c1.3,0,3.1-0.5,3.2,1.8
			C73.5,101.8,72.3,103.2,67.7,103.2z"/>
		<path style="fill:#FFFFFF;" d="M126.2,88.9c-0.3-0.3-1.8-1.1-1.9-2.1c-0.3-3.8,0.9-5,4.2-5c1.5,0,3.2-0.3,3.1,2.3
			C131.4,87.9,130.6,88.9,126.2,88.9z"/>
	</g>
</g>
</svg>
