<?xml version="1.0" encoding="utf-8"?>
<!-- Generator: Adobe Illustrator 19.2.1, SVG Export Plug-In . SVG Version: 6.00 Build 0)  -->
<svg version="1.1" id="Layer_1" xmlns="http://www.w3.org/2000/svg" xmlns:xlink="http://www.w3.org/1999/xlink" x="0px" y="0px"
	 viewBox="0 0 256 256" style="enable-background:new 0 0 256 256;" xml:space="preserve">
<g>
	<g>
		<ellipse style="fill:#990099;" cx="128" cy="128" rx="128" ry="128"/>
		<path id="path1_35_" style="fill:#FFFFFF;" d="M74.2,176.1c-1.9,0-4.4,1-5.8,2.4c-3.4,3.4-3.4,8.3,0,11.7c3.4,3.4,8.3,3.4,11.7,0
			c3.4-3.4,3.4-8.3,0-11.7C78.1,177,76.1,176.1,74.2,176.1z M139.9,142l19.5,19.5l11.7,2.4l20.9,31.6l-7.8,7.8l-31.6-20.9l-2.4-11.7
			l-19.5-19.5L139.9,142z M89.8,141.5l26.7,26.7c-12.6,13.6-22.9,24.8-27.7,29.7c-7.8,7.8-20.9,8.3-28.7,0c-7.8-7.8-7.8-20.9,0-28.7
			L89.8,141.5z M64.5,85.1c-1,0-1.9,0.5-2.4,1c-1.5,1.5-1.5,3.9,0,5.3l45.2,45.2c1.5,1.5,3.9,1.5,5.4,0c1.5-1.5,1.5-3.9,0-5.3
			L67.4,86.1C66.4,85.6,65.4,85.1,64.5,85.1z M75.7,73.9c-1,0-1.9,0.5-2.4,1c-1.9,1.5-1.9,3.9,0,5.8l45.2,45.2
			c1.5,1.5,3.9,1.5,5.3,0c1.5-1.5,1.5-3.9,0-5.3L78.6,74.9C77.6,74.4,76.6,73.9,75.7,73.9z M71.3,63.7c5.3,0,10.7,1.9,14.6,5.8
			l58.4,57.9L115,156.6L56.2,99.2c-8.3-8.3-8.3-21.4,0-29.2C60.6,65.7,65.9,63.7,71.3,63.7z M168.1,52c5.3,0,10.2,1,14.6,2.9
			l-20.4,20.4c-3.9,3.9-3.9,9.7,0,13.1l7.8,7.8c3.9,3.9,9.7,3.9,13.1,0l20.4-19.9c1.5,4.4,2.4,8.8,2.4,13.6
			c0,20.9-17,37.9-37.9,37.9s-37.9-17-37.9-37.9C130.1,69.1,147.1,52,168.1,52z"/>
	</g>
</g>
</svg>
