<?xml version="1.0" encoding="utf-8"?>
<!-- Generator: Adobe Illustrator 19.2.1, SVG Export Plug-In . SVG Version: 6.00 Build 0)  -->
<svg version="1.1" id="Layer_1" xmlns="http://www.w3.org/2000/svg" xmlns:xlink="http://www.w3.org/1999/xlink" x="0px" y="0px"
	 viewBox="0 0 256 256" style="enable-background:new 0 0 256 256;" xml:space="preserve">
<g>
	<g>
		<ellipse style="fill:#0066CC;" cx="128" cy="128" rx="128" ry="128"/>
		<path id="path1_3_" style="fill:#FFFFFF;" d="M178.8,147l6.9,6.9l-31.4,31.4l-18.5-18.5l6.9-6.9l11.6,11.6L178.8,147z M160.8,132
			c-18.8,0-34.1,15.3-34.1,34.1s15.3,34.1,34.1,34.1s34.1-15.3,34.1-34.1S179.6,132,160.8,132z M131.6,70.6v17.5h17.5L147,86
			L131.6,70.6z M73.1,63.8v112.1H118l-0.2-0.9c-0.6-2.9-0.9-5.8-0.9-8.8c0-22.3,16.7-40.8,38.3-43.5l0.8-0.1V97.9h-29.2
			c-2.7,0-4.9-2.2-4.9-4.9V63.8H73.1z M126.6,54c0.5,0,0.9,0,1.4,0.2h0.1l0,0l0,0l0.2,0.1l0.2,0.1l0,0l0,0h0.1
			c0.2,0.1,0.4,0.2,0.6,0.3h0.1l0,0h0.1l0.1,0.1l0.1,0.1l0.1,0.1l0.3,0.3l0,0l26.2,26.2l7.9,7.9l0,0l0.2,0.2l0,0l0,0l0.1,0.1
			l0.1,0.1l0.1,0.1l0.1,0.1v0.1l0,0l0.1,0.1l0.1,0.2l0.1,0.2l0.1,0.2l0,0v0.1V91v0.1v0.1v0.1v0.1l0,0l0.1,0.2v0.1v0.1v0.3v0.1v0.1
			v0.1v0.1v0.2v0.1v29.5l0.6,0.1c21.6,2.7,38.3,21.2,38.3,43.5c0,24.2-19.7,43.9-43.9,43.9c-16.6,0-31.1-9.3-38.6-23l-0.7-1.4H68.2
			c-2.7,0-4.9-2.2-4.9-4.9V58.9c0-2.7,2.2-4.9,4.9-4.9H126.6L126.6,54z"/>
	</g>
</g>
</svg>
