<?xml version="1.0" encoding="utf-8"?>
<!-- Generator: Adobe Illustrator 19.2.1, SVG Export Plug-In . SVG Version: 6.00 Build 0)  -->
<svg version="1.1" id="Layer_1" xmlns="http://www.w3.org/2000/svg" xmlns:xlink="http://www.w3.org/1999/xlink" x="0px" y="0px"
	 viewBox="0 0 256 256" style="enable-background:new 0 0 256 256;" xml:space="preserve">
<g>
	<g>
		<ellipse style="fill:#0066CC;" cx="128" cy="128" rx="128" ry="128"/>
		<path id="path1_14_" style="fill:#FFFFFF;" d="M137.7,101.2c1.2,0,2.5,0.5,3.4,1.4c1.9,1.9,1.9,5,0,6.9l-38.2,38.2l-18.3-18.3
			c-1.9-1.9-1.9-5,0-6.9s5-1.9,6.9,0l11.4,11.4l31.3-31.3C135.2,101.7,136.5,101.2,137.7,101.2z M161.6,74.5v101.4
			c0,8.1-6.6,14.6-14.8,14.6h-16.6l22.8,9.4c1.2,0.5,2.5,0.5,3.7,0s2.2-1.5,2.7-2.8L200,95.8c1-2.6-0.2-5.6-2.7-6.6L161.6,74.5z
			 M78.7,63.8c-2.8,0-5.1,2.2-5.1,4.9V176c0,2.7,2.3,4.9,5.1,4.9h68.1c2.8,0,5.1-2.2,5.1-4.9V68.6c0-2.7-2.3-4.9-5.1-4.9H78.7V63.8z
			 M78.7,54h68.1c6.1,0,11.4,3.7,13.6,8.9l0.2,0.6L201,80.1c7.5,3.1,11.1,11.7,8.1,19.3l-40.7,101.3c-1.5,3.7-4.3,6.6-8,8.1
			c-1.8,0.8-3.7,1.2-5.7,1.2c-1.9,0-3.8-0.4-5.6-1.1l-44.7-18.4H78.7c-8.2,0-14.8-6.6-14.8-14.6V68.6C63.9,60.6,70.5,54,78.7,54z"/>
	</g>
</g>
</svg>
