<?xml version="1.0" encoding="utf-8"?>
<!-- Generator: Adobe Illustrator 19.2.1, SVG Export Plug-In . SVG Version: 6.00 Build 0)  -->
<svg version="1.1" id="Layer_1" xmlns="http://www.w3.org/2000/svg" xmlns:xlink="http://www.w3.org/1999/xlink" x="0px" y="0px"
	 viewBox="0 0 256 256" style="enable-background:new 0 0 256 256;" xml:space="preserve">
<g>
	<g>
		<ellipse style="fill:#99CC00;" cx="128" cy="128" rx="128" ry="128"/>
	</g>
	<g>
		<path style="fill:#FFFFFF;" d="M130.3,134.9c2.8-10.3,5.4-20.2,8.1-30.2c1-3.9,2.1-7.7,3.1-11.6c0.7-3.1,2.5-4,5.5-3.2
			c13.9,3.8,27.7,7.5,41.6,11.2c2.6,0.7,3.8,2.2,3.1,5c-4.8,17.5-8.9,35.1-14.6,52.3c-5.4,16.3-15.9,28.9-32.6,35
			c-27.7,10-57.3-7.6-62.5-37c-1.7-9.4-1.2-18.7,0.9-27.9c1.1-4.9,1.9-5.5,6.7-4.2c12.1,3.2,24.1,6.5,36.2,9.7
			C127.1,134.4,128.6,134.5,130.3,134.9z"/>
		<path style="fill:#FFFFFF;" d="M139.2,81.7c-1.3,4.8-2.8,10.2-4.2,15.6c-2.4,8.9-4.8,17.8-7.1,26.8c-0.8,3.1-2.5,4-5.5,3.2
			c-13.6-3.7-27.2-7.3-40.8-11c-4.4-1.2-4.8-2.1-3.7-6.4c3.6-13.5,7.3-27,10.8-40.5c0.8-3.1,2.1-4.4,5.5-3.5
			c13.7,3.8,27.5,7.5,41.2,11.2C137.6,77.5,139.5,78.2,139.2,81.7z"/>
	</g>
</g>
</svg>
