<?xml version="1.0" encoding="utf-8"?>
<!-- Generator: Adobe Illustrator 19.2.1, SVG Export Plug-In . SVG Version: 6.00 Build 0)  -->
<svg version="1.1" id="Layer_1" xmlns="http://www.w3.org/2000/svg" xmlns:xlink="http://www.w3.org/1999/xlink" x="0px" y="0px"
	 viewBox="0 0 256 256" style="enable-background:new 0 0 256 256;" xml:space="preserve">
<g>
	<g>
		<ellipse style="fill:#0066CC;" cx="128" cy="128" rx="128" ry="128"/>
		<path id="path1_15_" style="fill:#FFFFFF;" d="M74.4,89h24.4c2.7,0,4.9,2.2,4.9,4.9c0,2.7-2.2,4.9-4.9,4.9H74.4
			c-2.7,0-4.9-2.2-4.9-4.9C69.5,91.2,71.7,89,74.4,89z M59.8,79.3v97.5h136.5v-78h-65.6c-8.4,0-15.6-5.7-17.6-13.9l-1.3-5.6H59.8z
			 M58.6,69.5h54.3c3.8,0,7.2,2.7,8.1,6.4l1.6,6.7c0.9,3.7,4.2,6.4,8.1,6.4h66.7c4.8,0,8.6,3.9,8.6,8.6v80.2c0,4.8-3.9,8.6-8.6,8.6
			H58.6c-4.8,0-8.6-3.9-8.6-8.6V78.1C50,73.4,53.9,69.5,58.6,69.5z"/>
	</g>
</g>
</svg>
