<?xml version="1.0" encoding="utf-8"?>
<!-- Generator: Adobe Illustrator 19.2.1, SVG Export Plug-In . SVG Version: 6.00 Build 0)  -->
<svg version="1.1" id="Layer_1" xmlns="http://www.w3.org/2000/svg" xmlns:xlink="http://www.w3.org/1999/xlink" x="0px" y="0px"
	 viewBox="0 0 256 256" style="enable-background:new 0 0 256 256;" xml:space="preserve">
<g>
	<g>
		<ellipse style="fill:#99CC00;" cx="128" cy="128" rx="128" ry="128"/>
		<path id="path1_27_" style="fill:#FFFFFF;" d="M128,181.6h68.3v9.8H128V181.6z M69.5,171.9v24.4h24.4v-24.4H69.5z M59.8,162.1
			h43.9V206H59.8V162.1z M128,123.1h68.3v9.8H128V123.1z M69.5,115.8v24.4h24.4v-24.4L69.5,115.8z M59.8,106.1h43.9V150H59.8V106.1z
			 M128,64.6h68.3v9.8H128V64.6z M69.5,59.8v24.4h24.4V59.8H69.5z M59.8,50h43.9v43.9H59.8V50z"/>
	</g>
</g>
</svg>
