<?xml version="1.0" encoding="utf-8"?>
<!-- Generator: Adobe Illustrator 19.2.1, SVG Export Plug-In . SVG Version: 6.00 Build 0)  -->
<svg version="1.1" id="Layer_1" xmlns="http://www.w3.org/2000/svg" xmlns:xlink="http://www.w3.org/1999/xlink" x="0px" y="0px"
	 viewBox="0 0 256 256" style="enable-background:new 0 0 256 256;" xml:space="preserve">
<g>
	<g>
		<ellipse style="fill:#99CC00;" cx="128" cy="128" rx="128" ry="128"/>
		<path id="path1_20_" style="fill:#FFFFFF;" d="M77.6,166.1L98.7,188v-21.9H77.6z M140.8,140l-1.1,1.1l-3,16.9l16.7-4.8l0.6-0.6
			L140.8,140z M169.5,111.8l-21.7,21.4l13.2,12.6l21.3-21L169.5,111.8z M190.2,91.4L176.4,105l12.8,13l14-13.7L190.2,91.4z
			 M75.1,68.7c-1.2,0-2.3,0.5-3.1,1.3c-0.8,0.8-1.2,1.8-1.2,2.8l0.2,83.6h37.5v39h52.4c2.4,0,4.3-1.8,4.3-4.1v-36.1l-6.8,6.7
			l-34.1,9.8l6.3-35.4l34.6-34V72.8c0-2.3-1.9-4.1-4.3-4.1L75.1,68.7z M75.1,58.9h85.8c7.8,0,14.1,6.2,14.1,13.8v20l15.3-15
			l26.8,26.5L175,145.6v45.7c0,7.6-6.3,13.8-14.1,13.8h-59.2l-40.5-41.9L61,72.8c0-3.7,1.4-7.1,4-9.7C67.7,60.4,71.3,58.9,75.1,58.9
			z"/>
	</g>
</g>
</svg>
